<svg width="269" height="64" viewBox="0 0 269 64" fill="none" xmlns="http://www.w3.org/2000/svg">
<path d="M42.32 22.82C42.2 23.02 42.0667 23.1733 41.92 23.28C41.7867 23.3733 41.62 23.42 41.42 23.42C41.1933 23.42 40.9267 23.3067 40.62 23.08C40.3133 22.8533 39.9267 22.6067 39.46 22.34C39.0067 22.06 38.4533 21.8067 37.8 21.58C37.16 21.3533 36.38 21.24 35.46 21.24C34.5933 21.24 33.8267 21.36 33.16 21.6C32.5067 21.8267 31.9533 22.14 31.5 22.54C31.06 22.94 30.7267 23.4133 30.5 23.96C30.2733 24.4933 30.16 25.0733 30.16 25.7C30.16 26.5 30.3533 27.1667 30.74 27.7C31.14 28.22 31.66 28.6667 32.3 29.04C32.9533 29.4133 33.6867 29.74 34.5 30.02C35.3267 30.2867 36.1667 30.5667 37.02 30.86C37.8867 31.1533 38.7267 31.4867 39.54 31.86C40.3667 32.22 41.1 32.68 41.74 33.24C42.3933 33.8 42.9133 34.4867 43.3 35.3C43.7 36.1133 43.9 37.1133 43.9 38.3C43.9 39.5533 43.6867 40.7333 43.26 41.84C42.8333 42.9333 42.2067 43.8867 41.38 44.7C40.5667 45.5133 39.56 46.1533 38.36 46.62C37.1733 47.0867 35.82 47.32 34.3 47.32C32.4333 47.32 30.74 46.9867 29.22 46.32C27.7 45.64 26.4 44.7267 25.32 43.58L26.44 41.74C26.5467 41.5933 26.6733 41.4733 26.82 41.38C26.98 41.2733 27.1533 41.22 27.34 41.22C27.5133 41.22 27.7067 41.2933 27.92 41.44C28.1467 41.5733 28.4 41.7467 28.68 41.96C28.96 42.1733 29.28 42.4067 29.64 42.66C30 42.9133 30.4067 43.1467 30.86 43.36C31.3267 43.5733 31.8533 43.7533 32.44 43.9C33.0267 44.0333 33.6867 44.1 34.42 44.1C35.34 44.1 36.16 43.9733 36.88 43.72C37.6 43.4667 38.2067 43.1133 38.7 42.66C39.2067 42.1933 39.5933 41.64 39.86 41C40.1267 40.36 40.26 39.6467 40.26 38.86C40.26 37.9933 40.06 37.2867 39.66 36.74C39.2733 36.18 38.76 35.7133 38.12 35.34C37.48 34.9667 36.7467 34.6533 35.92 34.4C35.0933 34.1333 34.2533 33.8667 33.4 33.6C32.5467 33.32 31.7067 33 30.88 32.64C30.0533 32.28 29.32 31.8133 28.68 31.24C28.04 30.6667 27.52 29.9533 27.12 29.1C26.7333 28.2333 26.54 27.1667 26.54 25.9C26.54 24.8867 26.7333 23.9067 27.12 22.96C27.52 22.0133 28.0933 21.1733 28.84 20.44C29.6 19.7067 30.5267 19.12 31.62 18.68C32.7267 18.24 33.9933 18.02 35.42 18.02C37.02 18.02 38.4733 18.2733 39.78 18.78C41.1 19.2867 42.26 20.02 43.26 20.98L42.32 22.82ZM75.8147 26.74L69.2547 47H66.4347C66.088 47 65.848 46.7733 65.7147 46.32L61.2347 32.58C61.128 32.2733 61.0414 31.9667 60.9747 31.66C60.908 31.34 60.8414 31.0267 60.7747 30.72C60.708 31.0267 60.6414 31.34 60.5747 31.66C60.508 31.9667 60.4214 32.28 60.3147 32.6L55.7547 46.32C55.6347 46.7733 55.368 47 54.9547 47H52.2747L45.7147 26.74H48.5147C48.7947 26.74 49.028 26.8133 49.2147 26.96C49.4147 27.1067 49.548 27.28 49.6147 27.48L53.4947 40.52C53.7214 41.48 53.9014 42.3867 54.0347 43.24C54.1547 42.8 54.2747 42.3533 54.3947 41.9C54.528 41.4467 54.668 40.9867 54.8147 40.52L59.0947 27.4C59.1614 27.2 59.2747 27.0333 59.4347 26.9C59.608 26.7667 59.8147 26.7 60.0547 26.7H61.6147C61.8814 26.7 62.1014 26.7667 62.2747 26.9C62.448 27.0333 62.568 27.2 62.6347 27.4L66.8147 40.52C66.9614 40.9867 67.0947 41.4467 67.2147 41.9C67.3347 42.3533 67.448 42.8 67.5547 43.24C67.6214 42.8 67.7014 42.36 67.7947 41.92C67.9014 41.4667 68.0147 41 68.1347 40.52L72.0947 27.48C72.1614 27.2667 72.288 27.0933 72.4747 26.96C72.6614 26.8133 72.8814 26.74 73.1347 26.74H75.8147ZM83.0409 26.74V47H79.4809V26.74H83.0409ZM83.8009 20.38C83.8009 20.7267 83.7276 21.0533 83.5809 21.36C83.4476 21.6533 83.2609 21.92 83.0209 22.16C82.7943 22.3867 82.5209 22.5667 82.2009 22.7C81.8943 22.8333 81.5676 22.9 81.2209 22.9C80.8743 22.9 80.5476 22.8333 80.2409 22.7C79.9476 22.5667 79.6876 22.3867 79.4609 22.16C79.2343 21.92 79.0543 21.6533 78.9209 21.36C78.7876 21.0533 78.7209 20.7267 78.7209 20.38C78.7209 20.0333 78.7876 19.7067 78.9209 19.4C79.0543 19.08 79.2343 18.8067 79.4609 18.58C79.6876 18.34 79.9476 18.1533 80.2409 18.02C80.5476 17.8867 80.8743 17.82 81.2209 17.82C81.5676 17.82 81.8943 17.8867 82.2009 18.02C82.5209 18.1533 82.7943 18.34 83.0209 18.58C83.2609 18.8067 83.4476 19.08 83.5809 19.4C83.7276 19.7067 83.8009 20.0333 83.8009 20.38ZM106.73 29.72V41.88C106.73 42.7333 106.937 43.3667 107.35 43.78C107.764 44.1933 108.29 44.4 108.93 44.4C109.317 44.4 109.644 44.3533 109.91 44.26C110.19 44.1533 110.43 44.04 110.63 43.92C110.83 43.8 110.997 43.6933 111.13 43.6C111.264 43.4933 111.384 43.44 111.49 43.44C111.61 43.44 111.704 43.4667 111.77 43.52C111.85 43.5733 111.93 43.66 112.01 43.78L113.05 45.48C112.437 46.0533 111.697 46.5067 110.83 46.84C109.964 47.16 109.064 47.32 108.13 47.32C106.544 47.32 105.317 46.8733 104.45 45.98C103.597 45.0867 103.17 43.8 103.17 42.12V29.72H93.7903V47H90.2103V29.78L87.9703 29.52C87.6903 29.4533 87.457 29.3533 87.2703 29.22C87.097 29.0733 87.0103 28.8667 87.0103 28.6V27.14H90.2103V25.18C90.2103 24.02 90.3703 22.9933 90.6903 22.1C91.0236 21.1933 91.4903 20.4333 92.0903 19.82C92.7036 19.1933 93.437 18.72 94.2903 18.4C95.1436 18.08 96.1036 17.92 97.1703 17.92C98.077 17.92 98.9103 18.0533 99.6703 18.32L99.5903 20.1C99.5636 20.42 99.3836 20.5933 99.0503 20.62C98.7303 20.6467 98.297 20.66 97.7503 20.66C97.137 20.66 96.577 20.74 96.0703 20.9C95.577 21.06 95.1503 21.32 94.7903 21.68C94.4303 22.04 94.1503 22.5133 93.9503 23.1C93.7636 23.6867 93.6703 24.4133 93.6703 25.28V27.14H103.29L104.09 20.84C104.144 20.64 104.237 20.48 104.37 20.36C104.517 20.2267 104.704 20.16 104.93 20.16H106.73V27.14H112.57V29.72H106.73Z" fill="#E99D43"/>
<path d="M142.008 22.82C141.888 23.02 141.754 23.1733 141.608 23.28C141.474 23.3733 141.308 23.42 141.108 23.42C140.881 23.42 140.614 23.3067 140.308 23.08C140.001 22.8533 139.614 22.6067 139.148 22.34C138.694 22.06 138.141 21.8067 137.488 21.58C136.848 21.3533 136.068 21.24 135.148 21.24C134.281 21.24 133.514 21.36 132.848 21.6C132.194 21.8267 131.641 22.14 131.188 22.54C130.748 22.94 130.414 23.4133 130.188 23.96C129.961 24.4933 129.848 25.0733 129.848 25.7C129.848 26.5 130.041 27.1667 130.428 27.7C130.828 28.22 131.348 28.6667 131.988 29.04C132.641 29.4133 133.374 29.74 134.188 30.02C135.014 30.2867 135.854 30.5667 136.708 30.86C137.574 31.1533 138.414 31.4867 139.228 31.86C140.054 32.22 140.788 32.68 141.428 33.24C142.081 33.8 142.601 34.4867 142.988 35.3C143.388 36.1133 143.588 37.1133 143.588 38.3C143.588 39.5533 143.374 40.7333 142.948 41.84C142.521 42.9333 141.894 43.8867 141.068 44.7C140.254 45.5133 139.248 46.1533 138.048 46.62C136.861 47.0867 135.508 47.32 133.988 47.32C132.121 47.32 130.428 46.9867 128.908 46.32C127.388 45.64 126.087 44.7267 125.007 43.58L126.128 41.74C126.234 41.5933 126.361 41.4733 126.508 41.38C126.668 41.2733 126.841 41.22 127.028 41.22C127.201 41.22 127.394 41.2933 127.608 41.44C127.834 41.5733 128.088 41.7467 128.368 41.96C128.648 42.1733 128.968 42.4067 129.328 42.66C129.688 42.9133 130.094 43.1467 130.548 43.36C131.014 43.5733 131.541 43.7533 132.128 43.9C132.714 44.0333 133.374 44.1 134.108 44.1C135.028 44.1 135.848 43.9733 136.568 43.72C137.288 43.4667 137.894 43.1133 138.388 42.66C138.894 42.1933 139.281 41.64 139.548 41C139.814 40.36 139.948 39.6467 139.948 38.86C139.948 37.9933 139.748 37.2867 139.348 36.74C138.961 36.18 138.448 35.7133 137.808 35.34C137.168 34.9667 136.434 34.6533 135.608 34.4C134.781 34.1333 133.941 33.8667 133.088 33.6C132.234 33.32 131.394 33 130.568 32.64C129.741 32.28 129.008 31.8133 128.368 31.24C127.728 30.6667 127.208 29.9533 126.808 29.1C126.421 28.2333 126.228 27.1667 126.228 25.9C126.228 24.8867 126.421 23.9067 126.808 22.96C127.208 22.0133 127.781 21.1733 128.528 20.44C129.288 19.7067 130.214 19.12 131.308 18.68C132.414 18.24 133.681 18.02 135.108 18.02C136.708 18.02 138.161 18.2733 139.468 18.78C140.788 19.2867 141.948 20.02 142.948 20.98L142.008 22.82ZM161.669 34.66C161.669 33.8333 161.549 33.08 161.309 32.4C161.082 31.7067 160.742 31.1133 160.289 30.62C159.849 30.1133 159.309 29.7267 158.669 29.46C158.029 29.18 157.302 29.04 156.489 29.04C154.782 29.04 153.429 29.54 152.429 30.54C151.442 31.5267 150.829 32.9 150.589 34.66H161.669ZM164.549 44.16C164.109 44.6933 163.582 45.16 162.969 45.56C162.356 45.9467 161.696 46.2667 160.989 46.52C160.296 46.7733 159.576 46.96 158.829 47.08C158.082 47.2133 157.342 47.28 156.609 47.28C155.209 47.28 153.916 47.0467 152.729 46.58C151.556 46.1 150.536 45.4067 149.669 44.5C148.816 43.58 148.149 42.4467 147.669 41.1C147.189 39.7533 146.949 38.2067 146.949 36.46C146.949 35.0467 147.162 33.7267 147.589 32.5C148.029 31.2733 148.656 30.2133 149.469 29.32C150.282 28.4133 151.276 27.7067 152.449 27.2C153.622 26.68 154.942 26.42 156.409 26.42C157.622 26.42 158.742 26.6267 159.769 27.04C160.809 27.44 161.702 28.0267 162.449 28.8C163.209 29.56 163.802 30.5067 164.229 31.64C164.656 32.76 164.869 34.04 164.869 35.48C164.869 36.04 164.809 36.4133 164.689 36.6C164.569 36.7867 164.342 36.88 164.009 36.88H150.469C150.509 38.16 150.682 39.2733 150.989 40.22C151.309 41.1667 151.749 41.96 152.309 42.6C152.869 43.2267 153.536 43.7 154.309 44.02C155.082 44.3267 155.949 44.48 156.909 44.48C157.802 44.48 158.569 44.38 159.209 44.18C159.862 43.9667 160.422 43.74 160.889 43.5C161.356 43.26 161.742 43.04 162.049 42.84C162.369 42.6267 162.642 42.52 162.869 42.52C163.162 42.52 163.389 42.6333 163.549 42.86L164.549 44.16ZM196.987 26.74L190.427 47H187.607C187.26 47 187.02 46.7733 186.887 46.32L182.407 32.58C182.3 32.2733 182.213 31.9667 182.147 31.66C182.08 31.34 182.013 31.0267 181.947 30.72C181.88 31.0267 181.813 31.34 181.747 31.66C181.68 31.9667 181.593 32.28 181.487 32.6L176.927 46.32C176.807 46.7733 176.54 47 176.127 47H173.447L166.887 26.74H169.687C169.967 26.74 170.2 26.8133 170.387 26.96C170.587 27.1067 170.72 27.28 170.787 27.48L174.667 40.52C174.893 41.48 175.073 42.3867 175.207 43.24C175.327 42.8 175.447 42.3533 175.567 41.9C175.7 41.4467 175.84 40.9867 175.987 40.52L180.267 27.4C180.333 27.2 180.447 27.0333 180.607 26.9C180.78 26.7667 180.987 26.7 181.227 26.7H182.787C183.053 26.7 183.273 26.7667 183.447 26.9C183.62 27.0333 183.74 27.2 183.807 27.4L187.987 40.52C188.133 40.9867 188.267 41.4467 188.387 41.9C188.507 42.3533 188.62 42.8 188.727 43.24C188.793 42.8 188.873 42.36 188.967 41.92C189.073 41.4667 189.187 41 189.307 40.52L193.267 27.48C193.333 27.2667 193.46 27.0933 193.647 26.96C193.833 26.8133 194.053 26.74 194.307 26.74H196.987ZM211.198 37.88C209.558 37.9333 208.158 38.0667 206.998 38.28C205.852 38.48 204.912 38.7467 204.178 39.08C203.458 39.4133 202.932 39.8067 202.598 40.26C202.278 40.7133 202.118 41.22 202.118 41.78C202.118 42.3133 202.205 42.7733 202.378 43.16C202.552 43.5467 202.785 43.8667 203.078 44.12C203.385 44.36 203.738 44.54 204.138 44.66C204.552 44.7667 204.992 44.82 205.458 44.82C206.085 44.82 206.658 44.76 207.178 44.64C207.698 44.5067 208.185 44.32 208.638 44.08C209.105 43.84 209.545 43.5533 209.958 43.22C210.385 42.8867 210.798 42.5067 211.198 42.08V37.88ZM199.698 29.6C200.818 28.52 202.025 27.7133 203.318 27.18C204.612 26.6467 206.045 26.38 207.618 26.38C208.752 26.38 209.758 26.5667 210.638 26.94C211.518 27.3133 212.258 27.8333 212.858 28.5C213.458 29.1667 213.912 29.9733 214.218 30.92C214.525 31.8667 214.678 32.9067 214.678 34.04V47H213.098C212.752 47 212.485 46.9467 212.298 46.84C212.112 46.72 211.965 46.4933 211.858 46.16L211.458 44.24C210.925 44.7333 210.405 45.1733 209.898 45.56C209.392 45.9333 208.858 46.2533 208.298 46.52C207.738 46.7733 207.138 46.9667 206.498 47.1C205.872 47.2467 205.172 47.32 204.398 47.32C203.612 47.32 202.872 47.2133 202.178 47C201.485 46.7733 200.878 46.44 200.358 46C199.852 45.56 199.445 45.0067 199.138 44.34C198.845 43.66 198.698 42.86 198.698 41.94C198.698 41.14 198.918 40.3733 199.358 39.64C199.798 38.8933 200.512 38.2333 201.498 37.66C202.485 37.0867 203.772 36.62 205.358 36.26C206.945 35.8867 208.892 35.6733 211.198 35.62V34.04C211.198 32.4667 210.858 31.28 210.178 30.48C209.498 29.6667 208.505 29.26 207.198 29.26C206.318 29.26 205.578 29.3733 204.978 29.6C204.392 29.8133 203.878 30.06 203.438 30.34C203.012 30.6067 202.638 30.8533 202.318 31.08C202.012 31.2933 201.705 31.4 201.398 31.4C201.158 31.4 200.952 31.34 200.778 31.22C200.605 31.0867 200.458 30.9267 200.338 30.74L199.698 29.6Z" fill="#2C5DDA"/>
</svg>
